/* XPM */
static const char * recbtn_xpm[] = {
"20 20 21 1",
" 	c None",
".	c #A6A6A6",
"+	c #888888",
"@	c #5E5E5E",
"#	c #212121",
"$	c #A5A5A5",
"%	c #696969",
"&	c #000000",
"*	c #969696",
"=	c #CACACA",
"-	c #ECECEC",
";	c #FCFCFC",
">	c #5A5A5A",
",	c #C8C8C8",
"'	c #FFFFFF",
")	c #D4D4D4",
"!	c #F5D1D1",
"~	c #EA8E8E",
"{	c #E33D3D",
"]	c #F0B6B6",
"^	c #E11717",
"      .+@##@+.      ",
"    $%&&&&&&&&%$    ",
"   *&&+=-;;-=+&&*   ",
"  *&>,'''''''',>&*  ",
" $&>)'''''''''')>&$ ",
" %&,'''!~{{~!''',&% ",
".&+''']^^^^^^]'''+&.",
"+&=''!^^^^^^^^!''=&+",
"@&-''~^^^^^^^^~''-&@",
"#&;''{^^^^^^^^{'';&#",
"#&;''{^^^^^^^^{'';&#",
"@&-''~^^^^^^^^~''-&@",
"+&=''!^^^^^^^^!''=&+",
".&+''']^^^^^^]'''+&.",
" %&,'''!~{{~!''',&% ",
" $&>)'''''''''')>&$ ",
"  *&>,'''''''',>&*  ",
"   *&&+=-;;-=+&&*   ",
"    $%&&&&&&&&%$    ",
"      .+@##@+.      "};
