/* XPM */
static const char * stopbtn_xpm[] = {
"20 20 16 1",
" 	c None",
".	c #A6A6A6",
"+	c #888888",
"@	c #5E5E5E",
"#	c #212121",
"$	c #A5A5A5",
"%	c #696969",
"&	c #000000",
"*	c #969696",
"=	c #E1E1E1",
"-	c #ACACAC",
";	c #707070",
">	c #2A2A2A",
",	c #AEAEAE",
"'	c #9F9F9F",
")	c #FFFFFF",
"      .+@##@+.      ",
"    $%&&&&&&&&%$    ",
"   *&&=-;>>;-=&&*   ",
"  *&&,&&&&&&&&,&&*  ",
" $&&'&&&&&&&&&&'&&$ ",
" %&,&&&&&&&&&&&&,&% ",
".&=&&&&&&&&&&&&&&=&.",
"+&-&&&&))))))&&&&-&+",
"@&;&&&&))))))&&&&;&@",
"#&>&&&&))))))&&&&>&#",
"#&>&&&&))))))&&&&>&#",
"@&;&&&&))))))&&&&;&@",
"+&-&&&&))))))&&&&-&+",
".&=&&&&&&&&&&&&&&=&.",
" %&,&&&&&&&&&&&&,&% ",
" $&&'&&&&&&&&&&'&&$ ",
"  *&&,&&&&&&&&,&&*  ",
"   *&&=-;>>;-=&&*   ",
"    $%&&&&&&&&%$    ",
"      .+@##@+.      "};
